#N canvas 859 23 734 622 10;
#X obj 174 550 dac~;
#X floatatom 387 487 0 0 0 0 - - -;
#X obj 173 508 *~;
#X obj 173 430 hip~ 2000;
#X obj 173 451 hip~ 2000;
#X obj 66 80 tgl 15 0 empty empty empty 17 7 0 10 -262144 -1 -1 0 1
;
#X obj 115 169 tgl 15 0 empty empty empty 17 7 0 10 -262144 -1 -1 0
1;
#X obj 355 169 tgl 15 0 empty empty empty 17 7 0 10 -262144 -1 -1 0
1;
#X msg 389 442 0.1;
#X msg 419 443 0;
#N canvas 343 472 906 508 kusa-kiri 0;
#X obj 72 131 osc~;
#X obj 72 91 *~ 2470;
#X obj 72 312 *~;
#X obj 72 152 *~;
#X obj 135 89 *~ 0.5;
#X obj 135 131 cos~;
#X obj 135 110 +~ 0.75;
#X obj 209 110 wrap~;
#X obj 209 68 pow~ 3;
#X obj 209 89 *~ 4;
#X obj 135 194 *~;
#X obj 135 68 pow~ 1;
#X obj 209 173 cos~;
#X obj 209 131 *~ 0.5;
#X obj 209 152 +~ 0.75;
#X obj 209 194 *~ 0.7;
#X obj 209 215 +~ 0.3;
#X obj 135 152 *~ 0.7;
#X obj 135 173 +~ 0.3;
#X obj 135 47 phasor~ 198;
#X obj 72 69 osc~ 542;
#X obj 405 72 noise~;
#X obj 405 155 bp~ 2 100;
#X obj 72 333 *~;
#X obj 72 354 outlet~;
#X obj 467 93 random 7000;
#X obj 467 177 vline~;
#X obj 405 198 *~;
#X floatatom 467 135 5 0 0 0 - - -;
#X obj 467 73 bng 15 250 50 0 empty empty empty 17 7 0 10 -262144 -1
-1;
#X obj 467 114 + 5000;
#X obj 405 220 +~ 1;
#X obj 358 138 +~ 198;
#X obj 358 96 lop~ 0.1;
#X obj 358 117 *~ 100;
#X obj 298 160 +~ 16000;
#X obj 298 117 lop~ 1;
#X obj 298 139 *~ 1000;
#X obj 298 96 lop~ 0.5;
#X obj 72 111 +~;
#X obj 315 182 *~ -100;
#X obj 315 203 +~ 542;
#X msg 467 156 1 \, 60 100 \$1;
#X msg 591 82 1 \, 0 50 \, 1 200 50;
#X obj 591 103 vline~;
#X obj 591 124 lop~ 50000;
#X obj 546 20 tgl 15 0 empty empty empty 17 7 0 10 -262144 -1 -1 0
1;
#X obj 546 40 sel 0 1;
#X obj 405 176 +~ 0;
#X msg 709 83 0 10 \, 1 10 100 \, 0 10 200;
#X obj 493 11 inlet;
#X connect 0 0 3 0;
#X connect 1 0 39 0;
#X connect 2 0 23 0;
#X connect 3 0 2 0;
#X connect 4 0 6 0;
#X connect 5 0 17 0;
#X connect 6 0 5 0;
#X connect 7 0 13 0;
#X connect 8 0 9 0;
#X connect 9 0 7 0;
#X connect 10 0 3 1;
#X connect 11 0 4 0;
#X connect 12 0 15 0;
#X connect 13 0 14 0;
#X connect 14 0 12 0;
#X connect 15 0 16 0;
#X connect 16 0 10 1;
#X connect 17 0 18 0;
#X connect 18 0 10 0;
#X connect 19 0 8 0;
#X connect 19 0 11 0;
#X connect 20 0 1 0;
#X connect 21 0 22 0;
#X connect 21 0 33 0;
#X connect 21 0 38 0;
#X connect 22 0 48 0;
#X connect 23 0 24 0;
#X connect 25 0 30 0;
#X connect 26 0 27 1;
#X connect 27 0 31 0;
#X connect 28 0 42 0;
#X connect 29 0 25 0;
#X connect 30 0 28 0;
#X connect 31 0 2 1;
#X connect 32 0 19 0;
#X connect 33 0 34 0;
#X connect 34 0 32 0;
#X connect 35 0 39 1;
#X connect 36 0 37 0;
#X connect 36 0 40 0;
#X connect 37 0 35 0;
#X connect 38 0 36 0;
#X connect 39 0 0 0;
#X connect 40 0 41 0;
#X connect 41 0 20 0;
#X connect 42 0 26 0;
#X connect 43 0 44 0;
#X connect 44 0 45 0;
#X connect 45 0 23 1;
#X connect 46 0 47 0;
#X connect 47 0 49 0;
#X connect 47 1 43 0;
#X connect 47 1 29 0;
#X connect 48 0 27 0;
#X connect 49 0 44 0;
#X connect 50 0 46 0;
#X restore 227 185 pd kusa-kiri;
#X obj 227 163 tgl 15 0 empty empty empty 17 7 0 10 -262144 -1 -1 0
1;
#X obj 227 206 *~ 1;
#X obj 468 215 tgl 15 0 empty empty empty 17 7 0 10 -262144 -1 -1 0
1;
#N canvas 258 23 906 508 kaya-kiri 0;
#X obj 72 131 osc~;
#X obj 72 152 *~;
#X obj 135 131 cos~;
#X obj 209 110 wrap~;
#X obj 209 173 cos~;
#X obj 209 131 *~ 0.5;
#X obj 209 152 +~ 0.75;
#X obj 209 194 *~ 0.7;
#X obj 209 215 +~ 0.3;
#X obj 135 47 phasor~ 198;
#X obj 405 72 noise~;
#X obj 405 155 bp~ 2 100;
#X obj 72 315 *~;
#X obj 72 354 outlet~;
#X obj 467 93 random 7000;
#X obj 467 177 vline~;
#X obj 405 198 *~;
#X floatatom 467 135 5 0 0 0 - - -;
#X obj 467 73 bng 15 250 50 0 empty empty empty 17 7 0 10 -262144 -1
-1;
#X obj 467 114 + 5000;
#X obj 405 220 +~ 1;
#X obj 358 96 lop~ 0.1;
#X obj 358 117 *~ 100;
#X obj 298 117 lop~ 1;
#X obj 298 96 lop~ 0.5;
#X obj 315 182 *~ -100;
#X msg 467 156 1 \, 60 100 \$1;
#X obj 591 103 vline~;
#X obj 591 124 lop~ 50000;
#X obj 546 20 tgl 15 0 empty empty empty 17 7 0 10 -262144 -1 -1 0
1;
#X obj 546 40 sel 0 1;
#X obj 405 176 +~ 0;
#X obj 493 11 inlet;
#X obj 358 138 +~ 142;
#X obj 315 203 +~ 220;
#X obj 72 111 +~ 8000;
#X obj 135 152 *~ 0.5;
#X obj 135 173 +~ 0.5;
#X floatatom 87 42 5 0 0 0 - - -;
#X obj 72 91 *~ 1256;
#X floatatom 57 15 5 0 0 0 - - -;
#X obj 72 69 osc~ 196;
#X obj 135 68 pow~ 2;
#X floatatom 283 24 5 0 0 0 - - -;
#X obj 209 68 pow~ 2;
#X obj 135 194 *~;
#X obj 209 89 *~ 3;
#X obj 298 160 +~ 2;
#X obj 298 139 *~ 10;
#X msg 591 82 1 \, 0 20 \, 1 10 50;
#X msg 709 83 0 10;
#X connect 0 0 1 0;
#X connect 1 0 12 0;
#X connect 2 0 36 0;
#X connect 3 0 5 0;
#X connect 4 0 7 0;
#X connect 5 0 6 0;
#X connect 6 0 4 0;
#X connect 7 0 8 0;
#X connect 8 0 45 1;
#X connect 9 0 42 0;
#X connect 9 0 44 0;
#X connect 10 0 11 0;
#X connect 10 0 21 0;
#X connect 10 0 24 0;
#X connect 11 0 31 0;
#X connect 12 0 13 0;
#X connect 14 0 19 0;
#X connect 15 0 16 1;
#X connect 16 0 20 0;
#X connect 17 0 26 0;
#X connect 18 0 14 0;
#X connect 19 0 17 0;
#X connect 21 0 22 0;
#X connect 22 0 33 0;
#X connect 23 0 25 0;
#X connect 23 0 48 0;
#X connect 24 0 23 0;
#X connect 25 0 34 0;
#X connect 26 0 15 0;
#X connect 27 0 28 0;
#X connect 28 0 12 1;
#X connect 29 0 30 0;
#X connect 30 0 50 0;
#X connect 30 1 49 0;
#X connect 30 1 18 0;
#X connect 31 0 16 0;
#X connect 32 0 29 0;
#X connect 33 0 9 0;
#X connect 35 0 0 0;
#X connect 36 0 37 0;
#X connect 37 0 45 0;
#X connect 38 0 39 1;
#X connect 39 0 35 0;
#X connect 40 0 41 0;
#X connect 41 0 39 0;
#X connect 42 0 2 0;
#X connect 43 0 35 1;
#X connect 44 0 46 0;
#X connect 45 0 1 1;
#X connect 46 0 3 0;
#X connect 47 0 44 1;
#X connect 48 0 47 0;
#X connect 49 0 27 0;
#X connect 50 0 27 0;
#X restore 468 237 pd kaya-kiri;
#N canvas 0 23 711 487 hayashi-no-umaoi 0;
#X obj 37 118 inlet;
#X obj 85 340 *~;
#X floatatom 427 183 5 0 0 0 - - -;
#X obj 85 272 +~;
#X obj 85 296 osc~;
#X floatatom 85 198 5 0 0 0 - - -;
#X floatatom 159 223 5 0 0 0 - - -;
#X floatatom 300 223 5 0 0 0 - - -;
#X obj 221 188 *~ -1;
#X obj 362 207 expr~ if($v1>1 \, 0 \, $v1);
#X floatatom 621 188 5 0 0 0 - - -;
#X obj 565 236 -~ 1;
#X obj 565 212 clip~ 0 1;
#X obj 362 231 pow~ 2;
#X obj 362 255 lop~ 100;
#X obj 565 284 lop~ 10000;
#X obj 221 212 *~ 412;
#X obj 362 183 *~ 1.73;
#X obj 565 188 *~ 131;
#X obj 85 248 *~ 2470;
#X obj 85 224 osc~ 220;
#X obj 221 236 +~ 10553;
#X text 475 392 ハヤシノウマオイ;
#X text 474 412 (Hexacentrus Japonicus);
#X floatatom 299 187 5 0 0 0 - - -;
#X obj 85 460 outlet~;
#X obj 188 15 tgl 15 0 empty empty empty 17 7 0 10 -262144 -1 -1 0
1;
#X obj 188 35 metro 1250;
#X msg 188 77 0 \, 1 \$1 \, 0 0 \$1;
#X obj 188 98 vline~;
#X obj 188 56 f 1250;
#X obj 85 361 *~;
#X obj 227 384 clip~ 0 1;
#X obj 227 363 *~ 100;
#X obj 565 260 *~ -20;
#X connect 0 0 26 0;
#X connect 1 0 31 0;
#X connect 2 0 17 1;
#X connect 3 0 4 0;
#X connect 4 0 1 0;
#X connect 5 0 20 0;
#X connect 6 0 19 1;
#X connect 7 0 21 1;
#X connect 8 0 16 0;
#X connect 9 0 13 0;
#X connect 10 0 18 1;
#X connect 11 0 34 0;
#X connect 12 0 11 0;
#X connect 13 0 14 0;
#X connect 14 0 1 1;
#X connect 15 0 1 1;
#X connect 16 0 21 0;
#X connect 17 0 9 0;
#X connect 18 0 12 0;
#X connect 19 0 3 0;
#X connect 20 0 19 0;
#X connect 21 0 3 1;
#X connect 24 0 16 1;
#X connect 26 0 27 0;
#X connect 27 0 30 0;
#X connect 28 0 29 0;
#X connect 29 0 18 0;
#X connect 29 0 17 0;
#X connect 29 0 8 0;
#X connect 29 0 33 0;
#X connect 30 0 28 0;
#X connect 31 0 25 0;
#X connect 32 0 31 1;
#X connect 33 0 32 0;
#X connect 34 0 15 0;
#X restore 355 189 pd hayashi-no-umaoi;
#X obj 210 67 tgl 15 0 empty empty empty 17 7 0 10 -262144 -1 -1 0
1;
#N canvas 53 23 327 431 matsu-mushi 0;
#X obj 72 354 outlet~;
#X obj 59 16 inlet;
#X obj 72 311 osc~ 6000;
#X obj 70 268 *~ -200;
#X msg 70 161 0 \, 1 365;
#X obj 70 182 vline~;
#X obj 70 246 wrap~;
#X obj 72 332 *~;
#X obj 70 204 *~ 6;
#X obj 70 225 expr~ if($v1>=1&&$v1<3 \, 0 \, $v1);
#X obj 138 269 *~ 0.5;
#X obj 138 290 +~ 0.75;
#X obj 138 311 cos~;
#X obj 71 289 +~ 5800;
#X obj 171 141 random 300;
#X obj 171 162 + 900;
#X obj 171 183 del;
#X obj 215 115 spigot;
#X obj 254 96 tgl 15 0 empty empty empty 17 7 0 10 -262144 -1 -1 0
1;
#X obj 177 115 bng 15 250 50 0 empty empty empty 17 7 0 10 -262144
-1 -1;
#X obj 59 37 tgl 15 0 empty empty empty 17 7 0 10 -262144 -1 -1 0 1
;
#X obj 59 58 sel 1;
#X connect 1 0 20 0;
#X connect 2 0 7 0;
#X connect 3 0 13 0;
#X connect 4 0 5 0;
#X connect 5 0 8 0;
#X connect 6 0 3 0;
#X connect 6 0 10 0;
#X connect 7 0 0 0;
#X connect 8 0 9 0;
#X connect 9 0 6 0;
#X connect 10 0 11 0;
#X connect 11 0 12 0;
#X connect 12 0 7 1;
#X connect 13 0 2 0;
#X connect 14 0 15 0;
#X connect 15 0 16 0;
#X connect 16 0 17 0;
#X connect 16 0 4 0;
#X connect 17 0 14 0;
#X connect 18 0 17 1;
#X connect 19 0 14 0;
#X connect 20 0 18 0;
#X connect 20 0 21 0;
#X connect 21 0 19 0;
#X restore 210 89 pd matsu-mushi;
#X obj 369 80 tgl 15 0 empty empty empty 17 7 0 10 -262144 -1 -1 0
1;
#N canvas 0 23 327 431 kane-tataki 0;
#X obj 72 354 outlet~;
#X obj 59 16 inlet;
#X obj 171 183 del;
#X obj 215 115 spigot;
#X obj 254 96 tgl 15 0 empty empty empty 17 7 0 10 -262144 -1 -1 0
1;
#X obj 177 115 bng 15 250 50 0 empty empty empty 17 7 0 10 -262144
-1 -1;
#X obj 59 37 tgl 15 0 empty empty empty 17 7 0 10 -262144 -1 -1 0 1
;
#X obj 59 58 sel 1;
#X obj 80 306 osc~ 6400;
#X msg 85 172 0 \, 1 37;
#X obj 85 193 vline~;
#X obj 85 235 *~ 0.5;
#X obj 85 256 +~ 0.75;
#X obj 85 277 cos~;
#X obj 80 327 *~;
#X obj 85 214 pow~ 0.5;
#X obj 171 162 + 450;
#X obj 171 141 random 50;
#X connect 1 0 6 0;
#X connect 2 0 3 0;
#X connect 2 0 9 0;
#X connect 3 0 17 0;
#X connect 4 0 3 1;
#X connect 5 0 17 0;
#X connect 6 0 4 0;
#X connect 6 0 7 0;
#X connect 7 0 5 0;
#X connect 8 0 14 0;
#X connect 9 0 10 0;
#X connect 10 0 15 0;
#X connect 11 0 12 0;
#X connect 12 0 13 0;
#X connect 13 0 14 1;
#X connect 14 0 0 0;
#X connect 15 0 11 0;
#X connect 16 0 2 0;
#X connect 17 0 16 0;
#X restore 369 102 pd kane-tataki;
#X obj 513 121 tgl 15 0 empty empty empty 17 7 0 10 -262144 -1 -1 0
1;
#N canvas 0 419 461 561 madara-suzu 0;
#X obj 44 466 *~;
#X obj 44 376 *~;
#X obj 44 356 osc~ 4800;
#X obj 45 335 *~ 134;
#X obj 45 315 osc~ 117;
#X obj 108 59 tgl 15 0 empty empty empty 17 7 0 10 -262144 -1 -1 0
1;
#X obj 108 79 t f f;
#X obj 108 181 random 100;
#X obj 108 223 b;
#X msg 108 271 0 \, 1 \$1 \, 0 0 \$1;
#X obj 108 292 vline~;
#X obj 44 487 outlet~;
#X obj 108 34 inlet;
#X obj 227 251 phasor~ 160;
#X obj 227 272 pow~ 2;
#X obj 227 293 cos~;
#X obj 227 314 *~ 0.5;
#X obj 227 335 +~ 0.5;
#X obj 108 160 metro 1000;
#X obj 108 202 moses 99;
#X obj 109 336 +~ 6500;
#X obj 109 315 *~ 300;
#X obj 164 385 expr~ if($v1<=0 \, 0 \, $v1*0.5+0.5);
#X obj 108 251 f 500;
#X obj 164 406 lop~ 50;
#X connect 0 0 11 0;
#X connect 1 0 0 0;
#X connect 2 0 1 0;
#X connect 3 0 2 0;
#X connect 4 0 3 0;
#X connect 5 0 6 0;
#X connect 6 0 18 0;
#X connect 7 0 19 0;
#X connect 8 0 23 0;
#X connect 9 0 10 0;
#X connect 10 0 21 0;
#X connect 10 0 22 0;
#X connect 12 0 5 0;
#X connect 13 0 14 0;
#X connect 14 0 15 0;
#X connect 15 0 16 0;
#X connect 16 0 17 0;
#X connect 17 0 1 1;
#X connect 18 0 7 0;
#X connect 19 0 8 0;
#X connect 20 0 2 0;
#X connect 21 0 20 0;
#X connect 22 0 24 0;
#X connect 23 0 9 0;
#X connect 24 0 0 1;
#X restore 513 140 pd madara-suzu;
#X obj 513 161 *~ 0.5;
#X obj 592 199 tgl 15 0 empty empty empty 17 7 0 10 -262144 -1 -1 0
1;
#N canvas 0 419 461 561 mitukado-korogi 0;
#X obj 108 59 tgl 15 0 empty empty empty 17 7 0 10 -262144 -1 -1 0
1;
#X obj 108 79 t f f;
#X obj 44 487 outlet~;
#X obj 108 34 inlet;
#X obj 65 422 osc~;
#X obj 65 296 vline~;
#X obj 65 359 *~ -1;
#X obj 65 380 *~ 1000;
#X obj 65 317 *~ 2;
#X obj 65 338 wrap~;
#X obj 118 380 +~ 0.75;
#X obj 118 401 clip~ 0.75 1.25;
#X obj 118 422 cos~;
#X obj 65 443 *~;
#X msg 65 275 0 \, 1 \$1 \, 0 0 \$1;
#X msg 100 243 30;
#X obj 120 338 pow~ 0.8;
#X obj 118 359 *~ 0.7;
#X obj 274 149 random 3;
#X obj 274 170 + 9;
#X obj 205 168 f;
#X obj 235 168 + 1;
#X msg 205 210 0;
#X obj 205 147 metro 100;
#X obj 205 127 tgl 15 0 empty empty empty 17 7 0 10 -262144 -1 -1 0
1;
#X obj 205 189 sel 10;
#X floatatom 153 172 5 0 0 0 - - -;
#X obj 108 100 metro 2000;
#X obj 108 121 t b b;
#X msg 108 142 1;
#X obj 221 81 random 200;
#X obj 221 102 + 1900;
#X obj 65 401 +~ 5500;
#X connect 0 0 1 0;
#X connect 1 0 27 0;
#X connect 3 0 0 0;
#X connect 4 0 13 0;
#X connect 5 0 8 0;
#X connect 6 0 7 0;
#X connect 7 0 32 0;
#X connect 8 0 9 0;
#X connect 9 0 6 0;
#X connect 9 0 16 0;
#X connect 10 0 11 0;
#X connect 11 0 12 0;
#X connect 12 0 13 1;
#X connect 13 0 2 0;
#X connect 14 0 5 0;
#X connect 15 0 14 0;
#X connect 16 0 17 0;
#X connect 17 0 10 0;
#X connect 18 0 19 0;
#X connect 19 0 25 1;
#X connect 20 0 21 0;
#X connect 20 0 25 0;
#X connect 20 0 26 0;
#X connect 20 0 15 0;
#X connect 21 0 20 1;
#X connect 22 0 20 1;
#X connect 22 0 24 0;
#X connect 23 0 20 0;
#X connect 24 0 23 0;
#X connect 25 0 22 0;
#X connect 27 0 28 0;
#X connect 28 0 29 0;
#X connect 28 1 18 0;
#X connect 28 1 30 0;
#X connect 29 0 24 0;
#X connect 30 0 31 0;
#X connect 31 0 27 1;
#X connect 32 0 4 0;
#X restore 592 218 pd mitukado-korogi;
#X obj 592 239 *~ 1;
#X obj 468 258 *~ 0.5;
#X obj 201 476 rev3~ 100 50 3000 20;
#X obj 536 299 tgl 15 0 empty empty empty 17 7 0 10 -262144 -1 -1 0
1;
#N canvas 0 419 461 561 madara-suzu 0;
#X obj 44 466 *~;
#X obj 44 376 *~;
#X obj 44 356 osc~ 4800;
#X obj 45 335 *~ 134;
#X obj 45 315 osc~ 117;
#X obj 108 59 tgl 15 0 empty empty empty 17 7 0 10 -262144 -1 -1 0
1;
#X obj 108 79 t f f;
#X obj 108 181 random 100;
#X obj 108 223 b;
#X msg 108 271 0 \, 1 \$1 \, 0 0 \$1;
#X obj 108 292 vline~;
#X obj 44 487 outlet~;
#X obj 108 34 inlet;
#X obj 227 251 phasor~ 160;
#X obj 227 272 pow~ 2;
#X obj 227 293 cos~;
#X obj 227 314 *~ 0.5;
#X obj 227 335 +~ 0.5;
#X obj 108 160 metro 1000;
#X obj 108 202 moses 99;
#X obj 109 315 *~ 300;
#X obj 164 385 expr~ if($v1<=0 \, 0 \, $v1*0.5+0.5);
#X obj 108 251 f 500;
#X obj 164 406 lop~ 50;
#X obj 109 336 +~ 16500;
#X floatatom 170 303 5 0 0 0 - - -;
#X connect 1 0 0 0;
#X connect 2 0 1 0;
#X connect 3 0 2 0;
#X connect 4 0 3 0;
#X connect 5 0 6 0;
#X connect 6 0 18 0;
#X connect 7 0 19 0;
#X connect 8 0 22 0;
#X connect 9 0 10 0;
#X connect 10 0 20 0;
#X connect 10 0 21 0;
#X connect 12 0 5 0;
#X connect 13 0 14 0;
#X connect 14 0 15 0;
#X connect 15 0 16 0;
#X connect 16 0 17 0;
#X connect 17 0 1 1;
#X connect 18 0 7 0;
#X connect 19 0 8 0;
#X connect 21 0 23 0;
#X connect 22 0 9 0;
#X connect 23 0 0 1;
#X connect 24 0 2 0;
#X connect 25 0 24 1;
#X restore 536 318 pd madara-suzu;
#X obj 536 339 *~ 0.5;
#X obj 82 400 env~;
#X obj 82 421 - 100;
#X obj 82 442 vu 15 120 empty empty -1 -8 0 10 -66577 -1 1 0;
#N canvas 0 23 461 561 cricket1 0;
#X obj 44 466 *~;
#X obj 164 365 -~ 0.6;
#X obj 44 376 *~;
#X obj 234 262 cos~;
#X obj 234 282 abs~;
#X obj 234 242 *~ 1.5;
#X obj 234 202 phasor~ 100;
#X obj 307 202 osc~ 57;
#X obj 234 222 *~;
#X obj 44 356 osc~ 4800;
#X obj 164 405 lop~ 100;
#X obj 234 302 lop~ 300;
#X obj 109 315 *~ 200;
#X obj 45 335 *~ 134;
#X obj 45 315 osc~ 117;
#X obj 109 336 +~ 4600;
#X obj 108 59 tgl 15 0 empty empty empty 17 7 0 10 -262144 -1 -1 0
1;
#X obj 108 79 t f f;
#X obj 108 160 metro 181.5;
#X obj 150 120 / 10;
#X obj 108 251 f;
#X obj 150 80 sel 1;
#X obj 108 181 random 100;
#X obj 108 223 b;
#X obj 108 202 moses 97;
#X obj 150 100 random 200;
#X obj 150 140 + 170;
#X obj 243 98 b;
#X msg 108 271 0 \, 1 \$1 \, 0 0 \$1;
#X obj 108 292 vline~;
#X obj 164 385 expr~ if($v1>=0 \, $v1+0.6 \, 0);
#X obj 44 487 outlet~;
#X obj 108 34 inlet;
#X connect 0 0 31 0;
#X connect 1 0 30 0;
#X connect 2 0 0 0;
#X connect 3 0 4 0;
#X connect 4 0 11 0;
#X connect 5 0 3 0;
#X connect 6 0 8 0;
#X connect 7 0 8 1;
#X connect 8 0 5 0;
#X connect 9 0 2 0;
#X connect 10 0 0 1;
#X connect 11 0 2 1;
#X connect 12 0 15 0;
#X connect 13 0 9 0;
#X connect 14 0 13 0;
#X connect 15 0 9 0;
#X connect 16 0 17 0;
#X connect 17 0 18 0;
#X connect 17 1 21 0;
#X connect 18 0 22 0;
#X connect 18 0 27 0;
#X connect 19 0 26 0;
#X connect 20 0 28 0;
#X connect 21 0 25 0;
#X connect 22 0 24 0;
#X connect 23 0 20 0;
#X connect 24 0 23 0;
#X connect 25 0 19 0;
#X connect 26 0 18 1;
#X connect 26 0 20 1;
#X connect 27 0 25 0;
#X connect 28 0 29 0;
#X connect 29 0 1 0;
#X connect 29 0 12 0;
#X connect 30 0 10 0;
#X connect 32 0 16 0;
#X restore 66 99 pd cricket1;
#N canvas 877 23 653 827 cricket2 0;
#X obj 483 71 inlet;
#X obj 24 489 phasor~;
#X obj 24 539 cos~;
#X obj 24 563 *~;
#X obj 24 513 pow~ 0.95;
#X msg 323 291 0;
#X msg 323 315 0.25;
#X obj 322 267 loadbang;
#X floatatom 325 502 0 0 0 0 - - -;
#X obj 325 525 t b f;
#X obj 325 549 random 3;
#X obj 325 597 *;
#X floatatom 325 621 0 0 0 0 - - -;
#X obj 325 478 expr 1000 / $f1;
#X obj 325 740 vline~;
#X obj 24 587 *~;
#X obj 324 433 bng 15 250 50 0 empty empty empty 17 7 0 10 -262144
-1 -1;
#X obj 325 692 pack 0 0;
#X obj 465 740 line~;
#X obj 325 645 t f f b;
#X obj 477 432 tgl 15 0 empty empty empty 17 7 0 10 -262144 -1 -1 0
1;
#X obj 477 452 metro 400;
#X floatatom 477 524 5 0 0 0 - - -;
#X obj 477 547 t b f;
#X obj 491 572 +;
#X obj 23 244 phasor~ -13.15;
#X obj 325 573 + 9;
#X obj 23 366 *~ 400;
#X obj 23 390 *~;
#X obj 23 461 +~ 3382;
#X obj 23 338 -~ 0.1;
#X obj 477 500 + 4000;
#X obj 477 476 random 1000;
#X obj 325 668 / 2;
#X msg 325 716 0.2 \, 1 \$1 \, 0 5 \$2;
#X obj 126 405 osc~;
#X obj 126 455 *~;
#X floatatom 126 382 0 0 0 2 modulaterFrequency - -;
#X obj 164 457 noise~;
#X obj 164 481 lop~ 50;
#X obj 126 526 clip~ 0 1;
#X floatatom 265 382 5 0 0 2 modulationIndex - -;
#X obj 265 405 - 1;
#X floatatom 265 429 5 0 0 0 - - -;
#X obj 126 479 -~;
#X obj 126 282 / 2;
#X floatatom 23 179 0 0 0 0 - - -;
#X obj 126 430 abs~;
#X obj 126 503 +~;
#X obj 465 692 pack 0 0;
#X msg 465 716 1 \, \$2 \$1;
#X floatatom 518 669 5 0 0 0 - - -;
#X text 562 683 3.5;
#X text 132 214 glissandoS;
#X text 135 342 AM modulation;
#X text 28 439 pitch;
#X text 465 644 glissandoL;
#X obj 324 453 f;
#X obj 23 131 unpack 0 0 0 0 0 0 0 0 0;
#X obj 23 268 *~;
#X obj 23 155 * -1;
#X msg 24 108 41.66 0 1257 3700 1 1.01 10 110 5;
#X obj 24 86 loadbang;
#X obj 24 608 outlet~;
#X connect 0 0 20 0;
#X connect 1 0 4 0;
#X connect 2 0 3 0;
#X connect 3 0 15 0;
#X connect 4 0 2 0;
#X connect 5 0 6 0;
#X connect 5 0 25 1;
#X connect 6 0 35 1;
#X connect 7 0 5 0;
#X connect 8 0 9 0;
#X connect 9 0 10 0;
#X connect 9 1 11 1;
#X connect 10 0 26 0;
#X connect 11 0 12 0;
#X connect 12 0 19 0;
#X connect 12 0 24 0;
#X connect 13 0 8 0;
#X connect 14 0 15 1;
#X connect 15 0 63 0;
#X connect 16 0 57 0;
#X connect 17 0 34 0;
#X connect 18 0 28 1;
#X connect 19 0 33 0;
#X connect 19 1 17 1;
#X connect 19 1 49 0;
#X connect 19 2 5 0;
#X connect 20 0 21 0;
#X connect 21 0 32 0;
#X connect 22 0 23 0;
#X connect 23 0 16 0;
#X connect 23 1 24 1;
#X connect 24 0 21 1;
#X connect 25 0 59 0;
#X connect 25 0 59 1;
#X connect 26 0 11 0;
#X connect 27 0 28 0;
#X connect 28 0 29 0;
#X connect 29 0 1 0;
#X connect 30 0 27 0;
#X connect 31 0 22 0;
#X connect 32 0 31 0;
#X connect 33 0 17 0;
#X connect 34 0 14 0;
#X connect 35 0 47 0;
#X connect 36 0 44 0;
#X connect 37 0 35 0;
#X connect 38 0 39 0;
#X connect 39 0 48 1;
#X connect 40 0 3 1;
#X connect 41 0 42 0;
#X connect 41 0 36 1;
#X connect 42 0 43 0;
#X connect 43 0 44 1;
#X connect 44 0 48 0;
#X connect 45 0 37 0;
#X connect 46 0 25 0;
#X connect 47 0 36 0;
#X connect 48 0 40 0;
#X connect 49 0 50 0;
#X connect 50 0 18 0;
#X connect 51 0 49 1;
#X connect 57 0 13 0;
#X connect 58 0 45 0;
#X connect 58 0 57 1;
#X connect 58 0 60 0;
#X connect 58 1 30 1;
#X connect 58 2 27 1;
#X connect 58 3 29 1;
#X connect 58 4 41 0;
#X connect 58 5 51 0;
#X connect 58 6 32 1;
#X connect 58 7 31 1;
#X connect 58 8 26 1;
#X connect 59 0 30 0;
#X connect 60 0 46 0;
#X connect 61 0 58 0;
#X connect 62 0 61 0;
#X restore 115 189 pd cricket2;
#X obj 355 210 *~ 1;
#X obj 246 110 hsl 41 15 0 1 0 0 empty empty empty -2 -8 0 10 -262144
-1 -1 700 1;
#X obj 66 120 *~ 1;
#X obj 102 120 hsl 41 15 0 1 0 0 empty empty empty -2 -8 0 10 -262144
-1 -1 4000 1;
#X obj 115 210 *~ 1;
#X obj 151 210 hsl 41 15 0 1 0 0 empty empty empty -2 -8 0 10 -262144
-1 -1 0 1;
#X obj 420 123 hsl 41 15 0 1 0 0 empty empty empty -2 -8 0 10 -262144
-1 -1 1300 1;
#X obj 560 162 hsl 41 15 0 1 0 0 empty empty empty -2 -8 0 10 -262144
-1 -1 2000 1;
#X obj 627 239 hsl 41 15 0 1 0 0 empty empty empty -2 -8 0 10 -262144
-1 -1 0 1;
#X obj 261 206 hsl 41 15 0 1 0 0 empty empty empty -2 -8 0 10 -262144
-1 -1 0 1;
#X obj 515 259 hsl 41 15 0 1 0 0 empty empty empty -2 -8 0 10 -262144
-1 -1 0 1;
#X obj 390 211 hsl 41 15 0 1 0 0 empty empty empty -2 -8 0 10 -262144
-1 -1 0 1;
#X obj 583 340 hsl 41 15 0 1 0 0 empty empty empty -2 -8 0 10 -262144
-1 -1 0 1;
#X obj 390 468 hsl 41 15 0 1 0 0 empty empty empty -2 -8 0 10 -262144
-1 -1 0 1;
#X obj 210 110 *~ 1;
#X obj 369 123 *~ 0.5;
#X connect 1 0 2 1;
#X connect 2 0 0 0;
#X connect 2 0 0 1;
#X connect 2 0 31 0;
#X connect 3 0 4 0;
#X connect 4 0 2 0;
#X connect 4 0 27 0;
#X connect 5 0 34 0;
#X connect 6 0 35 0;
#X connect 7 0 15 0;
#X connect 8 0 49 0;
#X connect 9 0 49 0;
#X connect 10 0 12 0;
#X connect 11 0 10 0;
#X connect 12 0 3 0;
#X connect 13 0 14 0;
#X connect 14 0 26 0;
#X connect 15 0 36 0;
#X connect 16 0 17 0;
#X connect 17 0 50 0;
#X connect 18 0 19 0;
#X connect 19 0 51 0;
#X connect 20 0 21 0;
#X connect 21 0 22 0;
#X connect 22 0 3 0;
#X connect 23 0 24 0;
#X connect 24 0 25 0;
#X connect 25 0 3 0;
#X connect 26 0 3 0;
#X connect 27 0 2 0;
#X connect 28 0 29 0;
#X connect 29 0 30 0;
#X connect 30 0 3 0;
#X connect 31 0 32 0;
#X connect 32 0 33 0;
#X connect 34 0 38 0;
#X connect 35 0 40 0;
#X connect 36 0 3 0;
#X connect 37 0 50 1;
#X connect 38 0 3 0;
#X connect 39 0 38 1;
#X connect 40 0 3 0;
#X connect 41 0 40 1;
#X connect 42 0 51 1;
#X connect 43 0 22 1;
#X connect 44 0 25 1;
#X connect 45 0 12 1;
#X connect 46 0 26 1;
#X connect 47 0 36 1;
#X connect 48 0 30 1;
#X connect 49 0 1 0;
#X connect 50 0 3 0;
#X connect 51 0 3 0;
